<svg width="83" height="20" viewBox="0 0 83 20" fill="none" xmlns="http://www.w3.org/2000/svg">
<path d="M10.968 2.37612V5.66412H4.104V9.21612H9.24V12.4081H4.104V19.2241H-8.04663e-07V2.37612H10.968ZM26.349 5.83212V19.2241H22.245V17.4001C21.829 17.9921 21.261 18.4721 20.541 18.8401C19.837 19.1921 19.053 19.3681 18.189 19.3681C17.165 19.3681 16.261 19.1441 15.477 18.6961C14.693 18.2321 14.085 17.5681 13.653 16.7041C13.221 15.8401 13.005 14.8241 13.005 13.6561V5.83212H17.085V13.1041C17.085 14.0001 17.317 14.6961 17.781 15.1921C18.245 15.6881 18.869 15.9361 19.653 15.9361C20.453 15.9361 21.085 15.6881 21.549 15.1921C22.013 14.6961 22.245 14.0001 22.245 13.1041V5.83212H26.349ZM37.4569 5.68812C39.0249 5.68812 40.2729 6.20012 41.2009 7.22412C42.1449 8.23212 42.6169 9.62412 42.6169 11.4001V19.2241H38.5369V11.9521C38.5369 11.0561 38.3049 10.3601 37.8409 9.86412C37.3769 9.36812 36.7529 9.12012 35.9689 9.12012C35.1849 9.12012 34.5609 9.36812 34.0969 9.86412C33.6329 10.3601 33.4009 11.0561 33.4009 11.9521V19.2241H29.2969V5.83212H33.4009V7.60812C33.8169 7.01612 34.3769 6.55212 35.0809 6.21612C35.7849 5.86412 36.5769 5.68812 37.4569 5.68812ZM47.5327 4.44012C46.8127 4.44012 46.2207 4.23212 45.7567 3.81612C45.3087 3.38412 45.0847 2.85612 45.0847 2.23212C45.0847 1.59212 45.3087 1.06412 45.7567 0.64812C46.2207 0.21612 46.8127 0.000119686 47.5327 0.000119686C48.2367 0.000119686 48.8127 0.21612 49.2607 0.64812C49.7247 1.06412 49.9567 1.59212 49.9567 2.23212C49.9567 2.85612 49.7247 3.38412 49.2607 3.81612C48.8127 4.23212 48.2367 4.44012 47.5327 4.44012ZM49.5727 5.83212V19.2241H45.4687V5.83212H49.5727ZM56.6509 8.06412C57.1309 7.32812 57.7309 6.75212 58.4509 6.33612C59.1709 5.90412 59.9709 5.68812 60.8509 5.68812V10.0321H59.7229C58.6989 10.0321 57.9309 10.2561 57.4189 10.7041C56.9069 11.1361 56.6509 11.9041 56.6509 13.0081V19.2241H52.5469V5.83212H56.6509V8.06412ZM68.9085 19.4161C67.5965 19.4161 66.4125 19.1361 65.3565 18.5761C64.3165 18.0161 63.4925 17.2161 62.8845 16.1761C62.2925 15.1361 61.9965 13.9201 61.9965 12.5281C61.9965 11.1521 62.3005 9.94412 62.9085 8.90412C63.5165 7.84812 64.3485 7.04012 65.4045 6.48012C66.4605 5.92012 67.6445 5.64012 68.9565 5.64012C70.2685 5.64012 71.4525 5.92012 72.5085 6.48012C73.5645 7.04012 74.3965 7.84812 75.0045 8.90412C75.6125 9.94412 75.9165 11.1521 75.9165 12.5281C75.9165 13.9041 75.6045 15.1201 74.9805 16.1761C74.3725 17.2161 73.5325 18.0161 72.4605 18.5761C71.4045 19.1361 70.2205 19.4161 68.9085 19.4161ZM68.9085 15.8641C69.6925 15.8641 70.3565 15.5761 70.9005 15.0001C71.4605 14.4241 71.7405 13.6001 71.7405 12.5281C71.7405 11.4561 71.4685 10.6321 70.9245 10.0561C70.3965 9.48012 69.7405 9.19212 68.9565 9.19212C68.1565 9.19212 67.4925 9.48012 66.9645 10.0561C66.4365 10.6161 66.1725 11.4401 66.1725 12.5281C66.1725 13.6001 66.4285 14.4241 66.9405 15.0001C67.4685 15.5761 68.1245 15.8641 68.9085 15.8641ZM80.0137 19.4161C79.2937 19.4161 78.7017 19.2081 78.2377 18.7921C77.7897 18.3601 77.5657 17.8321 77.5657 17.2081C77.5657 16.5681 77.7897 16.0321 78.2377 15.6001C78.7017 15.1681 79.2937 14.9521 80.0137 14.9521C80.7177 14.9521 81.2937 15.1681 81.7417 15.6001C82.2057 16.0321 82.4377 16.5681 82.4377 17.2081C82.4377 17.8321 82.2057 18.3601 81.7417 18.7921C81.2937 19.2081 80.7177 19.4161 80.0137 19.4161Z" fill="black"/>
</svg>
