<svg width="60" height="59" viewBox="0 0 60 59" fill="none" xmlns="http://www.w3.org/2000/svg">
<path d="M56.786 20.3237C55.9943 17.8722 56.3318 14.1921 54.274 11.3507C52.2 8.48688 48.5929 7.67289 46.556 6.1832C44.5406 4.70922 42.6656 1.50168 39.2755 0.39543C35.981 -0.679648 32.6121 0.779219 30 0.779219C27.3882 0.779219 24.0196 -0.68 20.7245 0.395313C17.335 1.50133 15.4584 4.70957 13.4443 6.18285C11.4097 7.67078 7.79988 8.48699 5.72625 11.3504C3.6702 14.1895 4.0043 17.8779 3.21398 20.3236C2.46187 22.6513 0 25.445 0 29.0628C0 32.6828 2.45906 35.4657 3.21398 37.8018C4.0057 40.2534 3.6682 43.9334 5.72602 46.7748C7.79988 49.6388 11.4069 50.4527 13.444 51.9425C15.459 53.4162 17.3344 56.624 20.7245 57.7301C24.0168 58.8045 27.3909 57.3463 30 57.3463C32.6054 57.3463 35.9875 58.803 39.2755 57.7302C42.6652 56.6242 44.5405 53.4167 46.5557 51.9427C48.5903 50.4548 52.2001 49.6386 54.2738 46.7752C56.3299 43.936 55.9956 40.2479 56.786 37.8019C57.5381 35.4741 60 32.6805 60 29.0628C60 25.443 57.5415 22.6609 56.786 20.3237ZM52.3257 36.3605C51.4029 39.217 51.6446 42.4137 50.4775 44.0255C49.2946 45.6587 46.1869 46.4048 43.7889 48.1588C41.4171 49.8933 39.7548 52.6429 37.8214 53.2737C35.9924 53.8707 33.0116 52.6586 30.0001 52.6586C26.9666 52.6586 24.0165 53.8732 22.1787 53.2737C20.2455 52.6429 18.5856 49.8952 16.2113 48.1587C13.8274 46.4153 10.702 45.6539 9.52254 44.0253C8.3591 42.4189 8.59172 39.2 7.67449 36.3606C6.77543 33.5787 4.6875 31.1699 4.6875 29.0628C4.6875 26.9535 6.77355 24.553 7.67426 21.765C8.59711 18.9087 8.35535 15.7117 9.52254 14.1C10.7047 12.4679 13.8148 11.7194 16.2113 9.96672C18.5905 8.2266 20.2424 5.48359 22.1784 4.85184C24.006 4.25559 26.9965 5.46695 29.9999 5.46695C33.0389 5.46695 35.9816 4.25148 37.8213 4.85184C39.7542 5.48254 41.4156 8.23129 43.7889 9.96684C46.1723 11.7102 49.298 12.4716 50.4775 14.1002C51.6411 15.7069 51.4072 18.9225 52.3255 21.7648V21.7649C53.2246 24.5468 55.3125 26.9556 55.3125 29.0628C55.3125 31.172 53.2264 33.5725 52.3257 36.3605ZM40.798 21.5399C41.7134 22.4553 41.7134 23.9392 40.798 24.8545L29.0668 36.5856C28.1515 37.501 26.6674 37.5009 25.7522 36.5856L19.2021 30.0355C18.2868 29.1202 18.2866 27.6362 19.202 26.721C20.1173 25.8058 21.6015 25.8057 22.5165 26.721L27.4095 31.6138L37.4832 21.54C38.3986 20.6247 39.8827 20.6247 40.798 21.5399Z" fill="#242424"/>
</svg>
