<svg width="60" height="56" viewBox="0 0 60 56" fill="none" xmlns="http://www.w3.org/2000/svg">
<path d="M55.3479 29.0873V1.76499C55.3479 0.790245 54.5577 0 53.5829 0H6.29511C5.32036 0 4.53012 0.790245 4.53012 1.76499V31.2654C3.67869 31.3894 2.84632 31.7199 2.10997 32.2666C-0.211348 33.9126 -0.760378 37.5963 1.18405 39.8681L9.13392 49.5057C14.0549 55.2651 19.2825 55.9708 27.0539 55.9708C33.7228 55.9708 36.7043 56.0002 42.5165 54.6758L48.176 53.3222C49.0936 54.6037 50.5505 55.4339 52.1883 55.4339H54.9762C57.7463 55.4339 60 53.0597 60 50.1415V34.3638C60.0001 31.5773 57.9449 29.2885 55.3479 29.0873ZM47.4147 32.718L45.063 31.5235C41.1964 29.5718 36.7259 29.4996 32.7982 31.3256C31.7266 31.7471 29.3894 33.1612 28.1771 33.1139H20.0167C17.3099 33.1139 15.1077 35.316 15.1077 38.0229V39.3101C15.0925 39.2941 15.0766 39.2789 15.0617 39.2627L9.23429 32.9373C8.88164 32.5545 8.48546 32.2342 8.06022 31.9773V14.4663H22.5041V20.9363C22.5041 21.9111 23.2943 22.7013 24.2691 22.7013H35.4063C36.381 22.7013 37.1712 21.9111 37.1712 20.9363V14.4663H51.8181V29.0871C49.7559 29.2465 48.0363 30.7218 47.4147 32.718ZM26.0339 14.4663H33.6412V19.1713H26.0339V14.4663ZM51.818 10.9363H37.1712V3.52998H51.8181V10.9363H51.818ZM33.6413 3.52998V10.9365H26.034V3.52998H33.6413ZM22.504 3.52998V10.9365H8.0601V3.52998H22.504ZM41.6973 51.2421C36.3282 52.4718 33.0946 52.4221 27.1172 52.4221C19.8219 52.4221 16.297 52.3042 11.8572 47.2594L3.90731 37.6217C2.5245 35.8211 5.02914 33.6954 6.63811 35.3289L12.4655 41.6543C14.0056 43.2794 15.9437 44.1738 18.3325 44.2264H34.4889C35.4637 44.2264 36.2539 43.4362 36.2539 42.4614C36.2539 41.4867 35.4637 40.6964 34.4889 40.6964H18.6376V38.0227C18.6376 37.2623 19.2561 36.6437 20.0166 36.6437H28.177C30.0154 36.7753 32.6689 35.2403 34.2863 34.5264C37.228 33.1586 40.5763 33.2127 43.4684 34.6725L47.1647 36.55V49.9343L41.6973 51.2421ZM56.4701 50.1414C56.4701 51.1132 55.8 51.9038 54.9763 51.9038H52.1884C51.3647 51.9038 50.6947 51.1132 50.6947 50.1414V34.3638C50.6947 33.392 51.3648 32.6012 52.1884 32.6012H54.9763C55.8 32.6012 56.4701 33.3918 56.4701 34.3638V50.1414Z" fill="#242424"/>
</svg>
