<svg width="21" height="20" viewBox="0 0 21 20" fill="none" xmlns="http://www.w3.org/2000/svg">
<path d="M3 4.5H18C18.7956 4.5 19.5587 4.81607 20.1213 5.37868C20.6839 5.94129 21 6.70435 21 7.5V12C21 12.7956 20.6839 13.5587 20.1213 14.1213C19.5587 14.6839 18.7956 15 18 15H3C2.20435 15 1.44129 14.6839 0.87868 14.1213C0.316071 13.5587 0 12.7956 0 12V7.5C0 6.70435 0.316071 5.94129 0.87868 5.37868C1.44129 4.81607 2.20435 4.5 3 4.5ZM3 6C2.60218 6 2.22064 6.15804 1.93934 6.43934C1.65804 6.72064 1.5 7.10218 1.5 7.5V12C1.5 12.3978 1.65804 12.7794 1.93934 13.0607C2.22064 13.342 2.60218 13.5 3 13.5H18C18.3978 13.5 18.7794 13.342 19.0607 13.0607C19.342 12.7794 19.5 12.3978 19.5 12V7.5C19.5 7.10218 19.342 6.72064 19.0607 6.43934C18.7794 6.15804 18.3978 6 18 6H3ZM0 0.75C0 0.551088 0.0790176 0.360322 0.21967 0.21967C0.360322 0.0790176 0.551088 0 0.75 0H20.25C20.4489 0 20.6397 0.0790176 20.7803 0.21967C20.921 0.360322 21 0.551088 21 0.75C21 0.948912 20.921 1.13968 20.7803 1.28033C20.6397 1.42098 20.4489 1.5 20.25 1.5H0.75C0.551088 1.5 0.360322 1.42098 0.21967 1.28033C0.0790176 1.13968 0 0.948912 0 0.75ZM0 18.75C0 18.5511 0.0790176 18.3603 0.21967 18.2197C0.360322 18.079 0.551088 18 0.75 18H20.25C20.4489 18 20.6397 18.079 20.7803 18.2197C20.921 18.3603 21 18.5511 21 18.75C21 18.9489 20.921 19.1397 20.7803 19.2803C20.6397 19.421 20.4489 19.5 20.25 19.5H0.75C0.551088 19.5 0.360322 19.421 0.21967 19.2803C0.0790176 19.1397 0 18.9489 0 18.75Z" fill="black"/>
</svg>
