<svg width="17" height="17" viewBox="0 0 17 17" fill="none" xmlns="http://www.w3.org/2000/svg">
<path d="M12.8333 16.3333C11.9051 16.3333 11.0148 15.9646 10.3585 15.3082C9.70208 14.6518 9.33333 13.7616 9.33333 12.8333C9.33333 11.9051 9.70208 11.0148 10.3585 10.3585C11.0148 9.70208 11.9051 9.33333 12.8333 9.33333C13.7616 9.33333 14.6518 9.70208 15.3082 10.3585C15.9646 11.0148 16.3333 11.9051 16.3333 12.8333C16.3333 13.7616 15.9646 14.6518 15.3082 15.3082C14.6518 15.9646 13.7616 16.3333 12.8333 16.3333ZM3.5 16.3333C2.57174 16.3333 1.6815 15.9646 1.02513 15.3082C0.368749 14.6518 0 13.7616 0 12.8333C0 11.9051 0.368749 11.0148 1.02513 10.3585C1.6815 9.70208 2.57174 9.33333 3.5 9.33333C4.42826 9.33333 5.3185 9.70208 5.97487 10.3585C6.63125 11.0148 7 11.9051 7 12.8333C7 13.7616 6.63125 14.6518 5.97487 15.3082C5.3185 15.9646 4.42826 16.3333 3.5 16.3333ZM12.8333 7C11.9051 7 11.0148 6.63125 10.3585 5.97487C9.70208 5.3185 9.33333 4.42826 9.33333 3.5C9.33333 2.57174 9.70208 1.6815 10.3585 1.02513C11.0148 0.368749 11.9051 0 12.8333 0C13.7616 0 14.6518 0.368749 15.3082 1.02513C15.9646 1.6815 16.3333 2.57174 16.3333 3.5C16.3333 4.42826 15.9646 5.3185 15.3082 5.97487C14.6518 6.63125 13.7616 7 12.8333 7ZM3.5 7C2.57174 7 1.6815 6.63125 1.02513 5.97487C0.368749 5.3185 0 4.42826 0 3.5C0 2.57174 0.368749 1.6815 1.02513 1.02513C1.6815 0.368749 2.57174 0 3.5 0C4.42826 0 5.3185 0.368749 5.97487 1.02513C6.63125 1.6815 7 2.57174 7 3.5C7 4.42826 6.63125 5.3185 5.97487 5.97487C5.3185 6.63125 4.42826 7 3.5 7Z" fill="black"/>
</svg>
